              <svg width="40" height="40" viewBox="0 0 40 40" fill="none" xmlns="http://www.w3.org/2000/svg">
            <rect width="40" height="40" rx="10" fill="url(#paint0_linear_1104_1520)"/>
            <path d="M20 11.6667C19.337 11.6667 18.7011 11.9301 18.2322 12.399C17.7634 12.8678 17.5 13.5037 17.5 14.1667V20.0001C17.5 20.6631 17.7634 21.299 18.2322 21.7678C18.7011 22.2367 19.337 22.5001 20 22.5001C20.663 22.5001 21.2989 22.2367 21.7678 21.7678C22.2366 21.299 22.5 20.6631 22.5 20.0001V14.1667C22.5 13.5037 22.2366 12.8678 21.7678 12.399C21.2989 11.9301 20.663 11.6667 20 11.6667Z" stroke="white" stroke-width="1.66667" stroke-linecap="round" stroke-linejoin="round"/>
            <path d="M25.8333 18.3333V19.9999C25.8333 21.547 25.2187 23.0307 24.1247 24.1247C23.0308 25.2187 21.5471 25.8333 20 25.8333C18.4529 25.8333 16.9691 25.2187 15.8752 24.1247C14.7812 23.0307 14.1666 21.547 14.1666 19.9999V18.3333" stroke="white" stroke-width="1.66667" stroke-linecap="round" stroke-linejoin="round"/>
            <path d="M20 25.8333V28.3333" stroke="white" stroke-width="1.66667" stroke-linecap="round" stroke-linejoin="round"/>
            <defs>
            <linearGradient id="paint0_linear_1104_1520" x1="0" y1="20" x2="40" y2="20" gradientUnits="userSpaceOnUse">
            <stop stop-color="#2563EB"/>
            <stop offset="1" stop-color="#9333EA"/>
            </linearGradient>
            </defs>
</svg>