<svg width="23" height="23" viewBox="0 0 23 23" fill="none" xmlns="http://www.w3.org/2000/svg">
<path d="M1.69401 15.817C3.20234 15.5087 4.58683 14.764 5.67543 13.6754C6.76403 12.5868 7.50874 11.2023 7.81701 9.69401L6.34751 9.39351C6.09813 10.6139 5.49561 11.7341 4.61484 12.6148C3.73407 13.4956 2.61389 14.0981 1.39351 14.3475L1.69401 15.817ZM1.69401 15.183C1.76606 15.1999 1.8305 15.2401 1.87726 15.2975C1.92402 15.3548 1.95048 15.426 1.95251 15.5C1.95063 15.5741 1.92416 15.6454 1.87727 15.7028C1.83038 15.7602 1.76623 15.8004 1.69401 15.817L1.39351 14.3475C0.139012 14.604 0.139012 16.396 1.39351 16.6525L1.69401 15.183ZM7.81701 21.306C7.50874 19.7977 6.76403 18.4132 5.67543 17.3246C4.58683 16.236 3.20234 15.4913 1.69401 15.183L1.39351 16.6525C2.61389 16.9019 3.73407 17.5044 4.61484 18.3852C5.49561 19.2659 6.09813 20.3861 6.34751 21.6065L7.81701 21.306ZM7.18301 21.306C7.19988 21.234 7.24013 21.1695 7.29748 21.1228C7.35483 21.076 7.42604 21.0495 7.50001 21.0475C7.5741 21.0494 7.64545 21.0759 7.70284 21.1228C7.76023 21.1696 7.80089 21.2343 7.81751 21.3065L6.34751 21.6065C6.60401 22.861 8.39601 22.861 8.65251 21.6065L7.18301 21.306ZM13.306 15.183C11.7977 15.4913 10.4132 16.236 9.32459 17.3246C8.236 18.4132 7.49129 19.7977 7.18301 21.306L8.65251 21.6065C8.90189 20.3861 9.50441 19.2659 10.3852 18.3852C11.2659 17.5044 12.3861 16.9019 13.6065 16.6525L13.306 15.183ZM13.306 15.817C13.234 15.8001 13.1695 15.7599 13.1228 15.7025C13.076 15.6452 13.0495 15.574 13.0475 15.5C13.0496 15.426 13.0761 15.3547 13.123 15.2973C13.1698 15.24 13.2344 15.1993 13.3065 15.1825L13.6065 16.6525C14.861 16.396 14.861 14.604 13.6065 14.3475L13.306 15.817ZM7.18301 9.69401C7.49129 11.2023 8.236 12.5868 9.32459 13.6754C10.4132 14.764 11.7977 15.5087 13.306 15.817L13.6065 14.3475C12.3861 14.0981 11.2659 13.4956 10.3852 12.6148C9.50441 11.7341 8.90189 10.6139 8.65251 9.39351L7.18301 9.69401ZM8.65251 9.39351C8.39601 8.13901 6.60401 8.13901 6.34751 9.39351L7.81751 9.69351C7.80071 9.76573 7.76043 9.83034 7.70298 9.87721C7.64552 9.92408 7.57414 9.95057 7.50001 9.95251C7.42597 9.95046 7.35471 9.92392 7.29735 9.87706C7.23999 9.8302 7.19979 9.76565 7.18301 9.69351L8.65251 9.39351Z" fill="#202124"/>
<path d="M14.795 10.205C15.7582 10.0083 16.6424 9.53276 17.3376 8.83759C18.0328 8.14242 18.5083 7.25825 18.705 6.29501L17.2355 5.99501C17.0976 6.67014 16.7643 7.28985 16.2771 7.77709C15.7898 8.26433 15.1701 8.59762 14.495 8.73551L14.795 10.205ZM14.795 8.79501C15.5625 8.95151 15.5625 10.0485 14.795 10.205L14.495 8.73551C13.663 8.90551 13.663 10.0945 14.495 10.2645L14.795 8.79501ZM18.705 12.705C18.5083 11.7418 18.0328 10.8576 17.3376 10.1624C16.6424 9.46726 15.7582 8.99174 14.795 8.79501L14.495 10.2645C15.1701 10.4024 15.7898 10.7357 16.2771 11.2229C16.7643 11.7102 17.0976 12.3299 17.2355 13.005L18.705 12.705ZM17.295 12.705C17.4515 11.9375 18.5485 11.9375 18.705 12.705L17.2355 13.005C17.4055 13.837 18.5945 13.837 18.7645 13.005L17.295 12.705ZM21.205 8.79501C20.2418 8.99174 19.3576 9.46726 18.6624 10.1624C17.9673 10.8576 17.4917 11.7418 17.295 12.705L18.7645 13.005C18.9024 12.3299 19.2357 11.7102 19.7229 11.2229C20.2102 10.7357 20.8299 10.4024 21.505 10.2645L21.205 8.79501ZM21.205 10.205C20.4375 10.0485 20.4375 8.95151 21.205 8.79501L21.505 10.2645C22.337 10.0945 22.337 8.90551 21.505 8.73551L21.205 10.205ZM17.295 6.29501C17.4917 7.25825 17.9673 8.14242 18.6624 8.83759C19.3576 9.53276 20.2418 10.0083 21.205 10.205L21.505 8.73551C20.8299 8.59762 20.2102 8.26433 19.7229 7.77709C19.2357 7.28985 18.9024 6.67014 18.7645 5.99501L17.295 6.29501ZM18.7645 5.99501C18.5945 5.16301 17.4055 5.16301 17.2355 5.99501L18.705 6.29501C18.548 7.06251 17.4515 7.06251 17.295 6.29501L18.7645 5.99501ZM10.5315 0.793511C10.6355 0.283511 11.3645 0.283511 11.469 0.793511C11.5816 1.34472 11.8537 1.85067 12.2515 2.24848C12.6494 2.64629 13.1553 2.91841 13.7065 3.03101C14.2165 3.13551 14.2165 3.86451 13.7065 3.96901C13.1553 4.08161 12.6494 4.35373 12.2515 4.75154C11.8537 5.14935 11.5816 5.65531 11.469 6.20651C11.3645 6.71651 10.6355 6.71651 10.5315 6.20651C10.4189 5.65524 10.1467 5.14924 9.74877 4.75142C9.35087 4.35361 8.84481 4.08152 8.29351 3.96901C7.78351 3.86451 7.78351 3.13551 8.29351 3.03101C8.84481 2.9185 9.35087 2.64642 9.74877 2.2486C10.1467 1.85078 10.4189 1.34478 10.5315 0.793511Z" fill="url(#paint0_linear_1122_3667)"/>
<defs>
<linearGradient id="paint0_linear_1122_3667" x1="7.91101" y1="7.02001" x2="22.129" y2="7.02001" gradientUnits="userSpaceOnUse">
<stop stop-color="#2563EB"/>
<stop offset="1" stop-color="#9333EA"/>
</linearGradient>
</defs>
</svg>
